<svg width="36" height="34" viewBox="0 0 36 34" fill="none" xmlns="http://www.w3.org/2000/svg">
<path d="M17.9665 0C20.9973 0.0522617 35.261 13.8986 35.3298 17C35.2619 20.1008 20.9974 33.9477 17.9665 34C14.9352 33.947 0.67111 20.1008 0.60321 17C0.671965 13.8987 14.9353 0.0528858 17.9665 0ZM17.9665 1.28027C15.1635 1.32914 1.97283 14.1325 1.90985 17C1.97263 19.8673 15.1635 32.6719 17.9665 32.7207C20.7692 32.6723 33.9604 19.8674 34.0231 17C33.9601 14.1325 20.7692 1.32863 17.9665 1.28027Z" fill="#00629C"/>
<path fill-rule="evenodd" clip-rule="evenodd" d="M9.93174 18.9638C14.1638 20.7408 19.8258 20.8307 24.2847 19.4638C25.4143 19.1175 26.9891 18.4955 27.0789 17.2109C27.177 15.809 25.2177 15.1907 25.0308 15.048C25.1878 14.9582 25.6286 14.8274 25.9804 14.7763C24.4765 14.5259 23.0255 14.1554 21.5763 13.7952C21.8538 14.3956 22.0881 15.0937 22.3237 15.7162C22.7635 15.5823 23.1527 15.3795 23.6444 15.3571C25.8434 15.9689 26.6263 17.5862 24.1036 18.5318C20.8576 19.7486 17.1089 19.7967 13.6947 18.9126C12.7369 18.6645 11.0282 18.2547 11.2638 17.1416C11.6002 15.5525 13.6745 15.3373 15.1238 14.9779L12.8956 13.6248C10.0884 13.7758 5.26349 17.0036 9.93174 18.9638Z" fill="#00629C"/>
<path fill-rule="evenodd" clip-rule="evenodd" d="M18.1834 19.1315C18.6485 19.1365 19.1215 19.1124 19.5054 19.0653L19.1505 12.0904L21.0053 12.0905L18.184 4.72803L15.3622 12.0904H17.217L16.862 19.0653C17.246 19.1124 17.7184 19.1365 18.1834 19.1315Z" fill="#00629C"/>
<path fill-rule="evenodd" clip-rule="evenodd" d="M17.9667 28.0287C17.4098 28.0286 16.8502 27.9867 16.2303 27.8988L16.5977 20.8267C17.0803 20.8699 17.5286 20.8826 17.9667 20.8802C18.4048 20.8826 18.8531 20.8699 19.3357 20.8267L19.703 27.8988C19.0832 27.9867 18.5236 28.0286 17.9667 28.0287Z" fill="#00629C"/>
</svg>
