<svg width="54" height="55" viewBox="0 0 54 55" fill="none" xmlns="http://www.w3.org/2000/svg">
<path fill-rule="evenodd" clip-rule="evenodd" d="M26.9979 0.602661C22.4041 0.685482 0.783337 22.6283 0.68042 27.5421C0.783337 32.4559 22.4041 54.3986 26.9979 54.4816C31.5917 54.3986 53.2125 32.4559 53.3154 27.5421C53.2125 22.6283 31.5917 0.685482 26.9979 0.602661Z" fill="white"/>
<path fill-rule="evenodd" clip-rule="evenodd" d="M26.9978 2.63058C22.7499 2.70721 2.75666 22.9982 2.6615 27.5421C2.75666 32.086 22.7499 52.3769 26.9978 52.4536C31.2459 52.3769 51.2391 32.086 51.3343 27.5421C51.2391 22.9982 31.2459 2.70721 26.9978 2.63058Z" fill="black"/>
<path fill-rule="evenodd" clip-rule="evenodd" d="M14.6076 30.9378C21.0719 33.9018 29.7205 34.0516 36.5315 31.7719C38.2569 31.1944 40.6624 30.1569 40.7996 28.0143C40.9493 25.6761 37.9565 24.6448 37.671 24.4069C37.9109 24.257 38.5842 24.039 39.1216 23.9538C36.8244 23.536 34.6081 22.9182 32.3944 22.3174C32.8183 23.3187 33.1762 24.4831 33.536 25.5214C34.2078 25.298 34.8024 24.9598 35.5534 24.9223C38.9123 25.9429 40.1082 28.6403 36.2549 30.2175C31.2967 32.2468 25.5705 32.3271 20.3554 30.8525C18.8923 30.4388 16.2823 29.7552 16.6423 27.8987C17.1562 25.2483 20.3245 24.8895 22.5383 24.29L19.1348 22.0331C14.8468 22.285 7.47688 27.6686 14.6076 30.9378Z" fill="white"/>
<path fill-rule="evenodd" clip-rule="evenodd" d="M26.9979 31.0327C27.6629 31.0406 28.3391 31.0023 28.888 30.9273L28.3806 19.8312L31.0327 19.8313L26.9986 8.11849L22.9639 19.8312H25.616L25.1085 30.9273C25.6575 31.0023 26.333 31.0406 26.9979 31.0327Z" fill="white"/>
<path fill-rule="evenodd" clip-rule="evenodd" d="M26.9979 45.3792C26.209 45.3791 25.4163 45.3123 24.5383 45.1723L25.0587 33.9115C25.7423 33.9804 26.3774 34.0005 26.9979 33.9968C27.6185 34.0005 28.2536 33.9804 28.9372 33.9115L29.4575 45.1723C28.5796 45.3123 27.7868 45.3791 26.9979 45.3792Z" fill="white"/>
</svg>
