<svg width="190" height="95" viewBox="0 0 190 95" fill="none" xmlns="http://www.w3.org/2000/svg">
<path fill-rule="evenodd" clip-rule="evenodd" d="M32.416 65.594C32.0616 65.594 31.6197 65.4594 31.2086 64.9365C24.1875 56.0049 17.4853 48.3347 8.00053 41.7632C7.28815 41.2697 6.3334 40.7668 6.3334 39.7689C6.3334 38.7709 7.29126 38.2569 8.00363 37.7634C17.4884 31.192 24.1907 23.5217 31.2118 14.5901C31.6228 14.0672 32.0648 13.9326 32.4192 13.9326C32.7736 13.9326 33.2124 14.0561 33.6235 14.5791C40.6446 23.5106 47.3468 31.1809 56.8316 37.7523C57.544 38.2458 58.5018 38.7599 58.5018 39.7578C58.5018 40.7557 57.544 41.2697 56.8316 41.7632C47.3468 48.3347 40.6446 56.005 33.6235 64.9365C33.2124 65.4594 32.7704 65.594 32.416 65.594Z" fill="black"/>
<path fill-rule="evenodd" clip-rule="evenodd" d="M32.416 20.4551C29.0407 20.5144 13.1545 36.237 13.0789 39.7579C13.1545 43.2788 29.0407 59.0014 32.416 59.0608C35.7915 59.0014 51.6777 43.2788 51.7533 39.7579C51.6777 36.237 35.7915 20.5144 32.416 20.4551Z" fill="#00629C"/>
<path fill-rule="evenodd" clip-rule="evenodd" d="M32.416 21.9082C29.2948 21.9631 14.6044 36.5022 14.5345 39.758C14.6044 43.0138 29.2948 57.5528 32.416 57.6077C35.5373 57.5528 50.2277 43.0138 50.2976 39.758C50.2277 36.5022 35.5373 21.9631 32.416 21.9082Z" fill="black"/>
<path fill-rule="evenodd" clip-rule="evenodd" d="M65.2309 20.9038H76.0353V59.9095H65.2309V20.9038ZM81.7061 59.9095V20.9038H111.422V28.4665H92.5116V36.5162H109.907V44.0799H92.5116V52.3458H111.422V59.9094L81.7061 59.9095ZM117.472 59.9095V20.9038H147.185V28.4665H128.275V36.5162H145.672V44.0799H128.275V52.3458H147.185V59.9094L117.472 59.9095ZM153.236 59.9095V20.9038H182.95V28.4665H164.04V36.5162H181.436V44.0799H164.04V52.3458H182.95V59.9094L153.236 59.9095Z" fill="black"/>
<path fill-rule="evenodd" clip-rule="evenodd" d="M23.312 42.1911C28.0619 44.3148 34.4165 44.4222 39.421 42.7887C40.6888 42.3749 42.4563 41.6315 42.5571 40.0962C42.6671 38.4209 40.4681 37.6819 40.2583 37.5115C40.4346 37.4041 40.9293 37.2478 41.3242 37.1868C39.6363 36.8875 38.0078 36.4448 36.3812 36.0143C36.6927 36.7317 36.9557 37.5661 37.22 38.31C37.7137 38.15 38.1505 37.9076 38.7024 37.8808C41.1703 38.612 42.0491 40.5448 39.2178 41.6749C35.5746 43.129 31.3673 43.1865 27.5354 42.1299C26.4603 41.8335 24.5426 41.3437 24.8071 40.0134C25.1847 38.1144 27.5127 37.8572 29.1393 37.4277L26.6385 35.8105C23.4879 35.991 18.0727 39.8486 23.312 42.1911Z" fill="#00629C"/>
<path fill-rule="evenodd" clip-rule="evenodd" d="M40.9947 61.552V61.0819H41.2874C41.446 61.0819 41.6594 61.1061 41.6612 61.2962C41.6633 61.5124 41.5508 61.5521 41.3648 61.5521L40.9947 61.552ZM40.9947 61.8815H41.1921L41.6405 62.7H42.1352L41.6367 61.8485C41.8963 61.8267 42.1029 61.6974 42.1058 61.3396C42.1095 60.8895 41.8094 60.7515 41.3063 60.7515H40.5784V62.7H40.9938L40.9947 61.8815Z" fill="black"/>
<path fill-rule="evenodd" clip-rule="evenodd" d="M32.416 42.259C32.9046 42.2647 33.4015 42.2372 33.8049 42.1835L33.432 34.2328L35.3807 34.2329L32.4166 25.8403L29.452 34.2328H31.4007L31.0278 42.1835C31.4312 42.2372 31.9275 42.2647 32.416 42.259Z" fill="#00629C"/>
<path fill-rule="evenodd" clip-rule="evenodd" d="M32.416 52.5387C31.8364 52.5386 31.2539 52.4908 30.6088 52.3904L30.9912 44.3218C31.4935 44.3711 31.9601 44.3856 32.416 44.3829C32.872 44.3856 33.3387 44.3711 33.841 44.3218L34.2233 52.3904C33.5782 52.4908 32.9957 52.5386 32.416 52.5387Z" fill="#00629C"/>
<path fill-rule="evenodd" clip-rule="evenodd" d="M41.294 63.1255C42.066 63.1255 42.6919 62.4996 42.6919 61.7276C42.6919 60.9556 42.066 60.3297 41.294 60.3297C40.522 60.3297 39.8961 60.9556 39.8961 61.7276C39.8961 62.4996 40.522 63.1255 41.294 63.1255ZM41.294 63.6569C42.3595 63.6569 43.2232 62.7931 43.2232 61.7276C43.2232 60.6621 42.3595 59.7983 41.294 59.7983C40.2285 59.7983 39.3648 60.6621 39.3648 61.7276C39.3648 62.7931 40.2285 63.6569 41.294 63.6569Z" fill="black"/>
<path d="M9.27114 80.8075L12.1251 84.3971V81.9088C12.1251 81.5577 12.0755 81.3217 11.975 81.1979C11.838 81.0303 11.6079 80.9502 11.2859 80.956V80.8075H13.2001V80.956C12.9554 80.9881 12.7908 81.0289 12.7063 81.0785C12.6232 81.1295 12.5577 81.211 12.5096 81.3246C12.463 81.4383 12.4397 81.6335 12.4397 81.9088V86.7338H12.2955L8.3839 81.903V85.5975C8.3839 85.9326 8.45965 86.1598 8.61266 86.2778C8.76561 86.3959 8.94187 86.4541 9.13858 86.4541H9.27551V86.6027H7.21262V86.4541C7.53315 86.4512 7.75456 86.3857 7.88129 86.256C8.00663 86.1263 8.06926 85.9078 8.06926 85.5975V81.4994L7.9483 81.3494C7.82594 81.1921 7.71814 81.0887 7.62346 81.0391C7.53023 80.9895 7.39476 80.9619 7.21844 80.956V80.8075H9.27114ZM19.9016 84.9507H17.8752L17.6231 85.5159C17.543 85.7053 17.5036 85.8627 17.5036 85.9865C17.5036 86.1511 17.5692 86.272 17.6988 86.3507C17.7761 86.3959 17.9655 86.4308 18.267 86.4541V86.6027H16.3426V86.4541C16.5494 86.4221 16.7214 86.3347 16.8539 86.1933C16.9879 86.0506 17.154 85.7563 17.3492 85.3105L19.4179 80.6938H19.4995L21.5871 85.4387C21.7867 85.8933 21.9499 86.1802 22.0781 86.2982C22.1757 86.3886 22.3112 86.4396 22.4889 86.4541V86.6027H19.6889V86.4541H19.804C20.0283 86.4541 20.1871 86.4221 20.2775 86.358C20.3401 86.3128 20.3707 86.2458 20.3707 86.1598C20.3707 86.1074 20.3634 86.0535 20.3459 85.9981C20.3401 85.9734 20.2979 85.8641 20.2177 85.6732L19.9016 84.9507ZM19.7646 84.636L18.9008 82.662L18.0165 84.636H19.7646ZM30.7841 80.8075L27.3824 86.2793H28.4837C29.0038 86.2793 29.3681 86.2458 29.5764 86.1802C29.9144 86.0783 30.2057 85.8889 30.4505 85.6121C30.6952 85.3367 30.8642 84.9682 30.9589 84.5049H31.125L30.8904 86.6027H25.5919L28.9995 81.1222H28.14C27.8078 81.1222 27.5878 81.1324 27.4829 81.1528C27.2833 81.1892 27.0954 81.262 26.9206 81.3713C26.7458 81.482 26.6001 81.6276 26.485 81.8098C26.3699 81.9919 26.2796 82.222 26.214 82.5003H26.0552L26.2126 80.8075H30.7841ZM37.7695 84.9507H35.7431L35.491 85.5159C35.4109 85.7053 35.3716 85.8627 35.3716 85.9865C35.3716 86.1511 35.4371 86.272 35.5668 86.3507C35.644 86.3959 35.8334 86.4308 36.1349 86.4541V86.6027H34.2105V86.4541C34.4173 86.4221 34.5893 86.3347 34.7218 86.1933C34.8558 86.0506 35.022 85.7563 35.2172 85.3105L37.2858 80.6938H37.3675L39.455 85.4387C39.6546 85.8933 39.8178 86.1802 39.946 86.2982C40.0436 86.3886 40.1791 86.4396 40.3568 86.4541V86.6027H37.5568V86.4541H37.6719C37.8962 86.4541 38.0551 86.4221 38.1454 86.358C38.208 86.3128 38.2386 86.2458 38.2386 86.1598C38.2386 86.1074 38.2313 86.0535 38.2138 85.9981C38.208 85.9734 38.1658 85.8641 38.0857 85.6732L37.7695 84.9507ZM37.6326 84.636L36.7687 82.662L35.8844 84.636H37.6326ZM45.6422 83.9629V85.5975C45.6422 85.9093 45.6611 86.1074 45.7005 86.1875C45.7383 86.2691 45.8068 86.3332 45.9029 86.3813C46.0006 86.4294 46.1812 86.4541 46.4463 86.4541V86.6027H43.4832V86.4541C43.7513 86.4541 43.9333 86.4294 44.028 86.3799C44.1242 86.3303 44.1912 86.2647 44.2291 86.186C44.2684 86.1059 44.2874 85.9093 44.2874 85.5975V81.8127C44.2874 81.4994 44.2684 81.3028 44.2291 81.2227C44.1912 81.1411 44.1227 81.077 44.0266 81.0289C43.929 80.9808 43.7483 80.956 43.4832 80.956V80.8075H46.1754C46.8761 80.8075 47.3875 80.8555 47.7124 80.9531C48.0372 81.0493 48.3024 81.2285 48.5078 81.4907C48.7132 81.7515 48.8151 82.0574 48.8151 82.4085C48.8151 82.8354 48.6607 83.1894 48.3534 83.4691C48.1567 83.6468 47.8814 83.7794 47.5273 83.8668L48.9157 85.8292C49.0993 86.0812 49.2304 86.2385 49.3076 86.3011C49.4241 86.3886 49.5611 86.4367 49.7155 86.4454V86.6027H47.8916L46.0225 83.9629H45.6422ZM45.6422 81.1309V83.657H45.8855C46.2817 83.657 46.579 83.6206 46.7756 83.5492C46.9723 83.4764 47.1267 83.3452 47.2389 83.1573C47.3511 82.9694 47.4079 82.7232 47.4079 82.4202C47.4079 81.9802 47.3045 81.6554 47.0975 81.4455C46.8907 81.2358 46.5586 81.1309 46.0997 81.1309H45.6422ZM56.3718 83.5274C56.9239 83.6556 57.3128 83.8114 57.5358 83.9936C57.8562 84.2529 58.0165 84.5894 58.0165 85.0031C58.0165 85.4387 57.8417 85.8 57.4906 86.0855C57.0608 86.4308 56.4359 86.6027 55.6171 86.6027H52.6743V86.4541C52.9424 86.4541 53.1245 86.4294 53.2192 86.3784C53.3153 86.3289 53.3824 86.2633 53.4202 86.1831C53.4596 86.103 53.4785 85.9049 53.4785 85.5888V81.8214C53.4785 81.5053 53.4596 81.3072 53.4202 81.2256C53.3824 81.144 53.3138 81.0785 53.2177 81.0289C53.1201 80.9808 52.9395 80.956 52.6743 80.956V80.8075H55.451C56.1153 80.8075 56.5844 80.8672 56.8612 80.9852C57.138 81.1032 57.3551 81.2795 57.5154 81.514C57.6741 81.7486 57.7543 81.9991 57.7543 82.2629C57.7543 82.5425 57.6523 82.7902 57.4484 83.0087C57.2444 83.2258 56.886 83.3992 56.3718 83.5274ZM54.8158 83.4123C55.2238 83.4123 55.5253 83.3671 55.7191 83.2753C55.9128 83.185 56.0614 83.0568 56.1648 82.8908C56.2683 82.7261 56.3208 82.5149 56.3208 82.2585C56.3208 82.0021 56.2697 81.7923 56.1678 81.6291C56.0658 81.4645 55.9201 81.3407 55.7293 81.2547C55.5399 81.1688 55.2354 81.128 54.8158 81.1309V83.4123ZM54.8158 83.7444V85.6004V85.8146C54.8158 85.9676 54.8537 86.0841 54.9309 86.1613C55.0081 86.2399 55.1218 86.2793 55.2733 86.2793C55.4976 86.2793 55.7031 86.2283 55.8924 86.1278C56.0818 86.0273 56.226 85.8816 56.3266 85.6893C56.4271 85.4984 56.4781 85.2843 56.4781 85.0497C56.4781 84.7802 56.4213 84.5384 56.3091 84.3242C56.1954 84.1101 56.0294 83.9586 55.808 83.8712C55.5865 83.7838 55.2558 83.7415 54.8158 83.7444ZM64.8126 84.9507H62.7862L62.5341 85.5159C62.454 85.7053 62.4146 85.8627 62.4146 85.9865C62.4146 86.1511 62.4802 86.272 62.6098 86.3507C62.6871 86.3959 62.8765 86.4308 63.178 86.4541V86.6027H61.2536V86.4541C61.4604 86.4221 61.6324 86.3347 61.7649 86.1933C61.8989 86.0506 62.065 85.7563 62.2602 85.3105L64.3289 80.6938H64.4105L66.4981 85.4387C66.6977 85.8933 66.8609 86.1802 66.9891 86.2982C67.0867 86.3886 67.2221 86.4396 67.3999 86.4541V86.6027H64.5999V86.4541H64.715C64.9393 86.4541 65.0981 86.4221 65.1885 86.358C65.2511 86.3128 65.2817 86.2458 65.2817 86.1598C65.2817 86.1074 65.2744 86.0535 65.2569 85.9981C65.2511 85.9734 65.2088 85.8641 65.1287 85.6732L64.8126 84.9507ZM64.6756 84.636L63.8118 82.662L62.9275 84.636H64.6756ZM75.7752 80.8075V80.956C75.5843 80.9823 75.4386 81.0376 75.3352 81.1236C75.1939 81.2431 74.9695 81.5708 74.6622 82.1055L73.4035 84.2121V85.615C73.4035 85.9166 73.418 86.103 73.4501 86.1759C73.4807 86.2501 73.5433 86.3143 73.6351 86.3697C73.7283 86.4265 73.8507 86.4541 74.0051 86.4541H74.33V86.6027H71.0871V86.4541H71.3887C71.5576 86.4541 71.6932 86.4236 71.7922 86.3638C71.8665 86.323 71.9233 86.2545 71.967 86.1569C71.9976 86.0885 72.0136 85.9078 72.0136 85.615V84.451L70.6501 81.9598C70.3791 81.4674 70.1882 81.179 70.0775 81.0916C69.9668 81.0041 69.8182 80.959 69.6332 80.956V80.8075H72.4085V80.956H72.2846C72.1171 80.956 71.9991 80.9808 71.9321 81.0303C71.8651 81.0785 71.8316 81.1309 71.8316 81.1863C71.8316 81.2897 71.9452 81.5519 72.1739 81.97L73.2243 83.8814L74.2688 82.1419C74.5267 81.7093 74.6563 81.4222 74.6563 81.2809C74.6563 81.2023 74.6199 81.1382 74.5456 81.0858C74.4494 81.0143 74.2717 80.9706 74.0124 80.956V80.8075H75.7752ZM81.1101 81.1396V83.4997H81.2252C81.5938 83.4997 81.8603 83.3846 82.0264 83.1544C82.191 82.9243 82.2974 82.5848 82.3425 82.1361H82.5086V85.1692H82.3425C82.309 84.8385 82.2362 84.5676 82.127 84.3577C82.0162 84.1465 81.8895 84.0052 81.7438 83.9323C81.5981 83.8595 81.3869 83.8231 81.1101 83.8231V85.4518C81.1101 85.7709 81.1232 85.9646 81.1509 86.036C81.1771 86.1074 81.2281 86.1657 81.3024 86.2108C81.3767 86.256 81.4961 86.2793 81.6608 86.2793H82.0075C82.548 86.2793 82.9821 86.154 83.3084 85.9049C83.6347 85.6558 83.8693 85.2756 84.0106 84.7628H84.1694L83.9086 86.6027H78.9073V86.4541H79.0982C79.2657 86.4541 79.4012 86.4236 79.5032 86.3638C79.5775 86.323 79.6343 86.2545 79.6737 86.1569C79.7043 86.0885 79.7203 85.9078 79.7203 85.615V81.7952C79.7203 81.5315 79.713 81.3698 79.6984 81.3086C79.6708 81.2081 79.6183 81.1309 79.5411 81.077C79.4333 80.9968 79.2861 80.956 79.0982 80.956H78.9073V80.8075H83.7499V82.5207H83.5837C83.5022 82.1011 83.3856 81.801 83.2371 81.6189C83.0884 81.4368 82.8787 81.3028 82.6063 81.2169C82.4474 81.1659 82.1503 81.1396 81.7132 81.1396H81.1101ZM93.6446 80.8075V80.956C93.4347 80.991 93.2468 81.1032 93.0822 81.2955C92.9628 81.4383 92.785 81.7748 92.5476 82.3051L90.5634 86.7338H90.4221L88.4467 82.123C88.2077 81.565 88.0475 81.2372 87.9674 81.1411C87.8858 81.0434 87.7328 80.9823 87.5084 80.956V80.8075H90.2706V80.956H90.1774C89.9268 80.956 89.7549 80.9881 89.6646 81.0522C89.599 81.0945 89.567 81.1586 89.567 81.2431C89.567 81.2955 89.5772 81.3567 89.6005 81.4281C89.6238 81.498 89.701 81.6874 89.8321 81.9962L91.066 84.8749L92.2038 82.3124C92.3422 81.9977 92.4282 81.7879 92.4588 81.6816C92.4908 81.5752 92.5068 81.4849 92.5068 81.4091C92.5068 81.3232 92.4835 81.2474 92.4384 81.1804C92.3918 81.1149 92.3261 81.0638 92.2373 81.0289C92.1149 80.9808 91.9532 80.956 91.7507 80.956V80.8075H93.6446Z" fill="black"/>
<path d="M101.785 80.8162H104.775V80.9647H104.625C104.399 80.9647 104.245 80.988 104.16 81.0361C104.076 81.0828 104.016 81.1483 103.981 81.2314C103.945 81.3144 103.927 81.5227 103.927 81.8563V84.6913C103.927 85.21 103.966 85.5523 104.044 85.7198C104.122 85.8888 104.25 86.0272 104.43 86.1394C104.609 86.2501 104.836 86.3054 105.109 86.3054C105.422 86.3054 105.688 86.2355 105.908 86.0942C106.128 85.9529 106.293 85.7592 106.402 85.5115C106.511 85.2639 106.567 84.8326 106.567 84.2179V81.8563C106.567 81.5955 106.539 81.4076 106.485 81.2969C106.431 81.1848 106.363 81.1076 106.28 81.0638C106.152 80.9982 105.971 80.9647 105.736 80.9647V80.8162H107.738V80.9647H107.619C107.457 80.9647 107.323 80.9982 107.215 81.0638C107.107 81.1294 107.029 81.2285 106.981 81.361C106.944 81.4528 106.925 81.6174 106.925 81.8563V84.0562C106.925 84.7365 106.88 85.2275 106.791 85.529C106.701 85.832 106.484 86.1088 106.137 86.3623C105.789 86.6158 105.317 86.7425 104.717 86.7425C104.216 86.7425 103.829 86.6755 103.557 86.5415C103.184 86.3594 102.92 86.1263 102.767 85.8408C102.614 85.5567 102.537 85.1736 102.537 84.6928V81.8563C102.537 81.5198 102.518 81.3115 102.482 81.2299C102.444 81.1483 102.381 81.0828 102.29 81.0332C102.198 80.9851 102.03 80.9618 101.785 80.9647V80.8162ZM112.932 80.8162L115.786 84.4058V81.9175C115.786 81.5664 115.736 81.3304 115.636 81.2066C115.499 81.039 115.268 80.9589 114.946 80.9647V80.8162H116.861V80.9647C116.616 80.9968 116.451 81.0376 116.367 81.0872C116.284 81.1381 116.218 81.2197 116.17 81.3333C116.124 81.447 116.1 81.6422 116.1 81.9175V86.7425H115.956L112.044 81.9117V85.6062C112.044 85.9413 112.12 86.1685 112.273 86.2865C112.426 86.4046 112.602 86.4628 112.799 86.4628H112.936V86.6114H110.873V86.4628C111.194 86.4599 111.415 86.3944 111.542 86.2647C111.667 86.135 111.73 85.9165 111.73 85.6062V81.5081L111.609 81.3581C111.487 81.2008 111.379 81.0974 111.284 81.0478C111.191 80.9982 111.055 80.9706 110.879 80.9647V80.8162H112.932ZM123.125 86.4628V86.6114H120.109V86.4628H120.3C120.468 86.4628 120.603 86.4322 120.705 86.3725C120.78 86.3317 120.836 86.2632 120.876 86.1656C120.906 86.0971 120.922 85.9165 120.922 85.6237V81.8039C120.922 81.5052 120.906 81.3188 120.876 81.2445C120.844 81.1702 120.781 81.1046 120.686 81.0492C120.592 80.9924 120.464 80.9647 120.3 80.9647H120.109V80.8162H123.125V80.9647H122.934C122.768 80.9647 122.634 80.9953 122.532 81.0551C122.459 81.0959 122.401 81.1644 122.359 81.262C122.328 81.3304 122.312 81.5111 122.312 81.8039V85.6237C122.312 85.9223 122.328 86.1088 122.36 86.1831C122.394 86.2574 122.456 86.323 122.551 86.3783C122.646 86.4352 122.774 86.4628 122.934 86.4628H123.125ZM132.418 80.8162V80.9647C132.208 80.9997 132.021 81.1119 131.856 81.3042C131.736 81.447 131.559 81.7835 131.321 82.3138L129.337 86.7425H129.196L127.22 82.1317C126.981 81.5737 126.821 81.2459 126.741 81.1498C126.659 81.0521 126.506 80.991 126.282 80.9647V80.8162H129.044V80.9647H128.951C128.7 80.9647 128.528 80.9968 128.438 81.0609C128.373 81.1032 128.341 81.1673 128.341 81.2518C128.341 81.3042 128.351 81.3654 128.374 81.4368C128.397 81.5067 128.475 81.6961 128.606 82.0049L129.84 84.8836L130.977 82.3211C131.116 82.0064 131.202 81.7966 131.232 81.6903C131.264 81.5839 131.28 81.4936 131.28 81.4178C131.28 81.3319 131.257 81.2561 131.212 81.1891C131.165 81.1236 131.1 81.0725 131.011 81.0376C130.889 80.9895 130.727 80.9647 130.524 80.9647V80.8162H132.418ZM137.752 81.1483V83.5084H137.867C138.235 83.5084 138.502 83.3933 138.668 83.1631C138.833 82.933 138.939 82.5935 138.984 82.1448H139.15V85.1779H138.984C138.951 84.8472 138.878 84.5763 138.769 84.3664C138.658 84.1552 138.531 84.0139 138.385 83.941C138.24 83.8682 138.028 83.8318 137.752 83.8318V85.4605C137.752 85.7796 137.765 85.9733 137.792 86.0447C137.819 86.1161 137.87 86.1744 137.944 86.2195C138.018 86.2647 138.138 86.288 138.302 86.288H138.649C139.19 86.288 139.624 86.1627 139.95 85.9136C140.276 85.6645 140.511 85.2843 140.652 84.7715H140.811L140.55 86.6114H135.549V86.4628H135.74C135.907 86.4628 136.043 86.4322 136.145 86.3725C136.219 86.3317 136.276 86.2632 136.315 86.1656C136.346 86.0971 136.362 85.9165 136.362 85.6237V81.8039C136.362 81.5402 136.355 81.3785 136.34 81.3173C136.312 81.2168 136.26 81.1396 136.183 81.0857C136.075 81.0055 135.928 80.9647 135.74 80.9647H135.549V80.8162H140.391V82.5294H140.225C140.144 82.1098 140.027 81.8097 139.879 81.6276C139.73 81.4455 139.52 81.3115 139.248 81.2255C139.089 81.1746 138.792 81.1483 138.355 81.1483H137.752ZM146.392 83.9716V85.6062C146.392 85.918 146.411 86.1161 146.45 86.1962C146.488 86.2778 146.557 86.3419 146.653 86.39C146.75 86.4381 146.931 86.4628 147.196 86.4628V86.6114H144.233V86.4628C144.501 86.4628 144.683 86.4381 144.778 86.3885C144.874 86.339 144.941 86.2734 144.979 86.1947C145.018 86.1146 145.037 85.918 145.037 85.6062V81.8214C145.037 81.5081 145.018 81.3115 144.979 81.2314C144.941 81.1498 144.873 81.0857 144.776 81.0376C144.679 80.9895 144.498 80.9647 144.233 80.9647V80.8162H146.925C147.626 80.8162 148.137 80.8642 148.462 80.9618C148.787 81.058 149.052 81.2372 149.258 81.4994C149.463 81.7602 149.565 82.0661 149.565 82.4172C149.565 82.8441 149.411 83.1981 149.103 83.4778C148.907 83.6555 148.631 83.7881 148.277 83.8755L149.666 85.8379C149.849 86.0899 149.98 86.2472 150.057 86.3098C150.174 86.3973 150.311 86.4454 150.465 86.4541V86.6114H148.641L146.772 83.9716H146.392ZM146.392 81.1396V83.6657H146.635C147.032 83.6657 147.329 83.6293 147.525 83.5579C147.722 83.4851 147.877 83.3539 147.989 83.166C148.101 82.9781 148.158 82.7319 148.158 82.4289C148.158 81.9889 148.054 81.6641 147.847 81.4542C147.641 81.2445 147.308 81.1396 146.849 81.1396H146.392ZM157.35 80.6851L157.394 82.6168H157.219C157.136 82.1331 156.934 81.7442 156.61 81.4499C156.285 81.1556 155.936 81.0084 155.56 81.0084C155.268 81.0084 155.038 81.0857 154.869 81.2416C154.699 81.396 154.614 81.5751 154.614 81.7762C154.614 81.9044 154.645 82.018 154.705 82.1185C154.786 82.2512 154.919 82.3837 155.102 82.5148C155.236 82.608 155.545 82.7756 156.029 83.0145C156.708 83.3466 157.165 83.6613 157.401 83.957C157.636 84.2528 157.752 84.5908 157.752 84.9725C157.752 85.4561 157.563 85.8714 157.186 86.2195C156.808 86.5677 156.329 86.7425 155.748 86.7425C155.566 86.7425 155.392 86.7236 155.231 86.6872C155.067 86.6507 154.864 86.5808 154.619 86.4774C154.482 86.4206 154.37 86.3929 154.281 86.3929C154.206 86.3929 154.129 86.422 154.046 86.4789C153.963 86.5371 153.896 86.6245 153.845 86.7425H153.697V84.5573H153.845C153.97 85.1706 154.212 85.6397 154.569 85.9617C154.928 86.2836 155.312 86.4454 155.726 86.4454C156.045 86.4454 156.3 86.358 156.489 86.1845C156.679 86.0112 156.773 85.8102 156.773 85.5785C156.773 85.443 156.737 85.3105 156.664 85.1823C156.591 85.054 156.482 84.9331 156.333 84.8166C156.185 84.7015 155.923 84.5514 155.547 84.3664C155.019 84.1086 154.641 83.8871 154.41 83.705C154.182 83.523 154.005 83.319 153.882 83.0946C153.758 82.8689 153.697 82.6212 153.697 82.3517C153.697 81.8899 153.866 81.4965 154.205 81.1716C154.543 80.8467 154.97 80.6851 155.486 80.6851C155.673 80.6851 155.856 80.7069 156.032 80.7521C156.166 80.787 156.329 80.8497 156.521 80.9414C156.714 81.0332 156.848 81.0784 156.925 81.0784C156.999 81.0784 157.058 81.0565 157.1 81.0114C157.142 80.9662 157.183 80.8569 157.219 80.6851H157.35ZM164.157 86.4628V86.6114H161.141V86.4628H161.332C161.499 86.4628 161.635 86.4322 161.737 86.3725C161.811 86.3317 161.868 86.2632 161.907 86.1656C161.938 86.0971 161.954 85.9165 161.954 85.6237V81.8039C161.954 81.5052 161.938 81.3188 161.907 81.2445C161.875 81.1702 161.813 81.1046 161.718 81.0492C161.623 80.9924 161.495 80.9647 161.332 80.9647H161.141V80.8162H164.157V80.9647H163.966C163.8 80.9647 163.666 80.9953 163.564 81.0551C163.491 81.0959 163.433 81.1644 163.39 81.262C163.36 81.3304 163.344 81.5111 163.344 81.8039V85.6237C163.344 85.9223 163.36 86.1088 163.392 86.1831C163.425 86.2574 163.488 86.323 163.583 86.3783C163.677 86.4352 163.805 86.4628 163.966 86.4628H164.157ZM172.746 80.8162V82.3808H172.597C172.506 82.0195 172.405 81.7602 172.294 81.6028C172.184 81.444 172.031 81.3188 171.837 81.2255C171.729 81.1746 171.54 81.1483 171.269 81.1483H170.832V85.6237C170.832 85.9223 170.848 86.1088 170.88 86.1831C170.912 86.2574 170.976 86.323 171.069 86.3783C171.164 86.4352 171.292 86.4628 171.455 86.4628H171.645V86.6114H168.629V86.4628H168.82C168.986 86.4628 169.12 86.4322 169.222 86.3725C169.295 86.3317 169.353 86.2632 169.395 86.1656C169.426 86.0971 169.442 85.9165 169.442 85.6237V81.1483H169.022C168.635 81.1483 168.354 81.2314 168.177 81.396C167.931 81.6261 167.777 81.9539 167.711 82.3808H167.545V80.8162H172.746ZM182.141 80.8162V80.9647C181.95 80.991 181.805 81.0463 181.701 81.1323C181.56 81.2518 181.335 81.5795 181.028 82.1142L179.769 84.2208V85.6237C179.769 85.9253 179.784 86.1117 179.816 86.1845C179.847 86.2588 179.909 86.323 180.001 86.3783C180.094 86.4352 180.217 86.4628 180.371 86.4628H180.696V86.6114H177.453V86.4628H177.755C177.924 86.4628 178.059 86.4322 178.158 86.3725C178.232 86.3317 178.289 86.2632 178.333 86.1656C178.364 86.0971 178.38 85.9165 178.38 85.6237V84.4597L177.016 81.9685C176.745 81.4761 176.554 81.1877 176.443 81.1003C176.333 81.0128 176.184 80.9677 175.999 80.9647V80.8162H178.774V80.9647H178.651C178.483 80.9647 178.365 80.9895 178.298 81.039C178.231 81.0872 178.197 81.1396 178.197 81.195C178.197 81.2984 178.311 81.5606 178.54 81.9787L179.59 83.89L180.635 82.1506C180.893 81.718 181.022 81.4309 181.022 81.2896C181.022 81.211 180.986 81.1469 180.912 81.0944C180.815 81.023 180.638 80.9793 180.378 80.9647V80.8162H182.141Z" fill="black"/>
<path d="M69.469 68.083L69.5127 70.0147H69.3379C69.2548 69.5311 69.0523 69.1421 68.7289 68.8478C68.404 68.5536 68.0544 68.4064 67.6785 68.4064C67.3871 68.4064 67.157 68.4837 66.988 68.6395C66.8176 68.7939 66.733 68.9731 66.733 69.1742C66.733 69.3024 66.7636 69.416 66.8234 69.5165C66.905 69.6491 67.0375 69.7817 67.2211 69.9128C67.3551 70.006 67.664 70.1735 68.1477 70.4125C68.8265 70.7446 69.284 71.0593 69.52 71.355C69.7545 71.6508 69.8711 71.9888 69.8711 72.3704C69.8711 72.8541 69.6817 73.2693 69.3044 73.6175C68.927 73.9657 68.4477 74.1405 67.8665 74.1405C67.6844 74.1405 67.511 74.1215 67.3493 74.0851C67.1861 74.0487 66.9822 73.9788 66.7374 73.8753C66.6005 73.8185 66.4883 73.7909 66.3995 73.7909C66.3252 73.7909 66.248 73.82 66.1649 73.8768C66.0818 73.9351 66.0148 74.0225 65.9639 74.1405H65.8153V71.9552H65.9639C66.0891 72.5686 66.331 73.0376 66.6879 73.3596C67.0463 73.6816 67.4309 73.8433 67.8446 73.8433C68.1637 73.8433 68.4186 73.7559 68.608 73.5825C68.7974 73.4092 68.8921 73.2081 68.8921 72.9765C68.8921 72.841 68.8557 72.7084 68.7828 72.5802C68.71 72.452 68.6007 72.3311 68.4521 72.2146C68.3035 72.0995 68.0413 71.9494 67.6654 71.7644C67.1381 71.5066 66.7593 71.2851 66.5291 71.103C66.3004 70.9209 66.1241 70.7169 66.0003 70.4926C65.8765 70.2668 65.8153 70.0191 65.8153 69.7496C65.8153 69.2878 65.9843 68.8944 66.3237 68.5696C66.6617 68.2447 67.0885 68.083 67.6043 68.083C67.7922 68.083 67.9742 68.1049 68.1506 68.15C68.2846 68.185 68.4477 68.2476 68.6401 68.3394C68.8323 68.4311 68.9664 68.4764 69.0436 68.4764C69.1179 68.4764 69.1762 68.4545 69.2184 68.4093C69.2607 68.3641 69.3015 68.2549 69.3379 68.083H69.469ZM78.6003 68.2141V69.7788H78.4517C78.36 69.4174 78.2595 69.1582 78.1487 69.0008C78.038 68.842 77.885 68.7167 77.6913 68.6235C77.5835 68.5725 77.3941 68.5463 77.1231 68.5463H76.6861V73.0216C76.6861 73.3203 76.7021 73.5068 76.7341 73.581C76.7662 73.6553 76.8303 73.7209 76.9236 73.7763C77.0182 73.8331 77.1464 73.8608 77.3096 73.8608H77.499V74.0094H74.4833V73.8608H74.6742C74.8403 73.8608 74.9743 73.8302 75.0763 73.7705C75.1492 73.7297 75.2074 73.6612 75.2497 73.5636C75.2803 73.4951 75.2963 73.3145 75.2963 73.0216V68.5463H74.8767C74.4892 68.5463 74.208 68.6293 74.0318 68.7939C73.7855 69.0241 73.6311 69.3519 73.5656 69.7788H73.3995V68.2141H78.6003ZM81.9787 68.2141H84.9681V68.3627H84.8181C84.5923 68.3627 84.4379 68.386 84.3533 68.4341C84.2688 68.4807 84.2091 68.5463 84.1742 68.6293C84.1377 68.7123 84.1203 68.9207 84.1203 69.2543V72.0893C84.1203 72.6079 84.1596 72.9502 84.2368 73.1178C84.3155 73.2868 84.4437 73.4252 84.6229 73.5373C84.802 73.648 85.0293 73.7034 85.3017 73.7034C85.615 73.7034 85.8816 73.6335 86.1015 73.4922C86.3215 73.3509 86.4861 73.1571 86.5954 72.9095C86.7046 72.6618 86.7601 72.2306 86.7601 71.6158V69.2543C86.7601 68.9935 86.7324 68.8056 86.6784 68.6949C86.6245 68.5827 86.5561 68.5055 86.473 68.4617C86.3448 68.3962 86.1642 68.3627 85.9296 68.3627V68.2141H87.9313V68.3627H87.8118C87.6501 68.3627 87.5161 68.3962 87.4083 68.4617C87.3005 68.5274 87.2218 68.6264 87.1737 68.759C87.1373 68.8507 87.1184 69.0153 87.1184 69.2543V71.4541C87.1184 72.1344 87.0732 72.6254 86.9844 72.9269C86.8941 73.23 86.677 73.5067 86.3303 73.7603C85.9821 74.0137 85.51 74.1405 84.9098 74.1405C84.4087 74.1405 84.0227 74.0735 83.7502 73.9394C83.3773 73.7574 83.1136 73.5242 82.9606 73.2387C82.8077 72.9546 82.7305 72.5715 82.7305 72.0907V69.2543C82.7305 68.9177 82.7115 68.7094 82.6751 68.6279C82.6372 68.5463 82.5745 68.4807 82.4828 68.4311C82.391 68.3831 82.2235 68.3598 81.9787 68.3627V68.2141ZM91.0664 74.0094V73.8608H91.2573C91.4248 73.8608 91.5545 73.8346 91.6433 73.7807C91.7322 73.7282 91.7992 73.6553 91.8415 73.5636C91.8662 73.5038 91.8794 73.3232 91.8794 73.0216V69.2019C91.8794 68.9032 91.8633 68.7167 91.8327 68.6424C91.8006 68.5681 91.738 68.5026 91.6433 68.4472C91.5486 68.3904 91.4204 68.3627 91.2573 68.3627H91.0664V68.2141H93.6567C94.3487 68.2141 94.9052 68.3088 95.3262 68.4968C95.8404 68.7269 96.2309 69.0766 96.4975 69.5427C96.7641 70.0104 96.8966 70.5392 96.8966 71.1292C96.8966 71.5357 96.8311 71.9115 96.7 72.2553C96.5689 72.5977 96.3998 72.8818 96.193 73.1061C95.9847 73.329 95.7443 73.5082 95.4733 73.6437C95.2009 73.7792 94.8687 73.8841 94.4768 73.9584C94.3035 73.9919 94.0296 74.0094 93.6567 74.0094H91.0664ZM93.2691 68.5375V73.058C93.2691 73.297 93.2808 73.4441 93.3041 73.498C93.3259 73.5519 93.3653 73.5927 93.4192 73.6218C93.4964 73.6641 93.6071 73.6859 93.7528 73.6859C94.2292 73.6859 94.5934 73.5242 94.844 73.1994C95.1863 72.7609 95.3582 72.0791 95.3582 71.1569C95.3582 70.4125 95.2417 69.8195 95.0071 69.3752C94.8221 69.027 94.5832 68.791 94.2918 68.6657C94.0864 68.5769 93.7455 68.5346 93.2691 68.5375ZM102.505 68.5463V70.9063H102.62C102.989 70.9063 103.256 70.7912 103.422 70.561C103.586 70.3309 103.693 69.9914 103.738 69.5427H103.904V72.5759H103.738C103.704 72.2452 103.632 71.9742 103.522 71.7644C103.412 71.5532 103.285 71.4119 103.139 71.339C102.993 71.2661 102.782 71.2297 102.505 71.2297V72.8585C102.505 73.1775 102.519 73.3713 102.546 73.4427C102.572 73.514 102.623 73.5723 102.698 73.6175C102.772 73.6626 102.891 73.6859 103.056 73.6859H103.403C103.943 73.6859 104.377 73.5606 104.704 73.3116C105.03 73.0624 105.265 72.6822 105.406 72.1694H105.565L105.304 74.0094H100.303V73.8608H100.494C100.661 73.8608 100.797 73.8302 100.899 73.7705C100.973 73.7297 101.03 73.6612 101.069 73.5636C101.1 73.4951 101.116 73.3145 101.116 73.0216V69.2019C101.116 68.9381 101.108 68.7764 101.094 68.7153C101.066 68.6148 101.014 68.5375 100.936 68.4837C100.829 68.4035 100.681 68.3627 100.494 68.3627H100.303V68.2141H105.145V69.9273H104.979C104.898 69.5078 104.781 69.2077 104.632 69.0255C104.484 68.8435 104.274 68.7094 104.002 68.6235C103.843 68.5725 103.546 68.5463 103.109 68.5463H102.505ZM110.993 68.2141L113.847 71.8037V69.3155C113.847 68.9644 113.797 68.7284 113.697 68.6046C113.56 68.437 113.33 68.3569 113.008 68.3627V68.2141H114.922V68.3627C114.677 68.3947 114.513 68.4355 114.428 68.4851C114.345 68.5361 114.279 68.6177 114.231 68.7313C114.185 68.8449 114.161 69.0401 114.161 69.3155V74.1405H114.017L110.106 69.3096V73.0041C110.106 73.3392 110.181 73.5665 110.334 73.6845C110.487 73.8025 110.664 73.8608 110.86 73.8608H110.997V74.0094H108.934V73.8608C109.255 73.8579 109.476 73.7923 109.603 73.6626C109.728 73.533 109.791 73.3145 109.791 73.0041V68.9061L109.67 68.756C109.548 68.5987 109.44 68.4953 109.345 68.4457C109.252 68.3962 109.117 68.3685 108.94 68.3627V68.2141H110.993ZM123.511 68.2141V69.7788H123.363C123.271 69.4174 123.17 69.1582 123.06 69.0008C122.949 68.842 122.796 68.7167 122.602 68.6235C122.494 68.5725 122.305 68.5463 122.034 68.5463H121.597V73.0216C121.597 73.3203 121.613 73.5068 121.645 73.581C121.677 73.6553 121.741 73.7209 121.835 73.7763C121.929 73.8331 122.057 73.8608 122.221 73.8608H122.41V74.0094H119.394V73.8608H119.585C119.751 73.8608 119.885 73.8302 119.987 73.7705C120.06 73.7297 120.118 73.6612 120.161 73.5636C120.191 73.4951 120.207 73.3145 120.207 73.0216V68.5463H119.788C119.4 68.5463 119.119 68.6293 118.943 68.7939C118.697 69.0241 118.542 69.3519 118.477 69.7788H118.311V68.2141H123.511Z" fill="black"/>
<path d="M134.801 70.934C135.353 71.0622 135.742 71.2181 135.965 71.4002C136.285 71.6595 136.445 71.9961 136.445 72.4098C136.445 72.8454 136.271 73.2067 135.92 73.4922C135.49 73.8375 134.865 74.0094 134.046 74.0094H131.103V73.8608C131.371 73.8608 131.553 73.836 131.648 73.785C131.744 73.7355 131.811 73.6699 131.849 73.5898C131.889 73.5097 131.907 73.3116 131.907 72.9954V69.2281C131.907 68.9119 131.889 68.7138 131.849 68.6322C131.811 68.5507 131.743 68.4851 131.647 68.4355C131.549 68.3875 131.368 68.3627 131.103 68.3627V68.2141H133.88C134.544 68.2141 135.013 68.2738 135.29 68.3918C135.567 68.5099 135.784 68.6861 135.944 68.9207C136.103 69.1552 136.183 69.4058 136.183 69.6695C136.183 69.9492 136.081 70.1968 135.877 70.4154C135.673 70.6324 135.315 70.8058 134.801 70.934ZM133.245 70.8189C133.653 70.8189 133.954 70.7737 134.148 70.682C134.342 70.5916 134.49 70.4635 134.594 70.2974C134.697 70.1327 134.75 69.9215 134.75 69.6651C134.75 69.4087 134.699 69.1989 134.597 69.0357C134.495 68.8711 134.349 68.7473 134.158 68.6614C133.969 68.5754 133.664 68.5346 133.245 68.5376V70.8189ZM133.245 71.1511V73.0071V73.2212C133.245 73.3742 133.283 73.4907 133.36 73.5679C133.437 73.6466 133.551 73.6859 133.702 73.6859C133.927 73.6859 134.132 73.6349 134.321 73.5344C134.511 73.4339 134.655 73.2882 134.756 73.0959C134.856 72.9051 134.907 72.691 134.907 72.4564C134.907 72.1869 134.85 71.945 134.738 71.7309C134.624 71.5168 134.458 71.3652 134.237 71.2778C134.015 71.1904 133.685 71.1481 133.245 71.1511ZM141.939 71.3696V73.0041C141.939 73.3159 141.958 73.514 141.997 73.5941C142.035 73.6757 142.104 73.7399 142.2 73.7879C142.298 73.836 142.478 73.8608 142.743 73.8608V74.0094H139.78V73.8608C140.048 73.8608 140.23 73.836 140.325 73.7865C140.421 73.737 140.488 73.6714 140.526 73.5927C140.565 73.5126 140.584 73.3159 140.584 73.0041V69.2193C140.584 68.9061 140.565 68.7094 140.526 68.6293C140.488 68.5477 140.42 68.4837 140.324 68.4355C140.226 68.3875 140.045 68.3627 139.78 68.3627V68.2141H142.472C143.173 68.2141 143.684 68.2622 144.009 68.3598C144.334 68.4559 144.599 68.6351 144.805 68.8973C145.01 69.1582 145.112 69.4641 145.112 69.8152C145.112 70.242 144.958 70.596 144.65 70.8758C144.454 71.0535 144.178 71.186 143.824 71.2734L145.213 73.2358C145.396 73.4878 145.527 73.6451 145.605 73.7078C145.721 73.7952 145.858 73.8433 146.012 73.852V74.0094H144.189L142.319 71.3696H141.939ZM141.939 68.5376V71.0637H142.182C142.579 71.0637 142.876 71.0273 143.073 70.9559C143.269 70.883 143.424 70.7519 143.536 70.564C143.648 70.3761 143.705 70.1298 143.705 69.8268C143.705 69.3869 143.601 69.062 143.394 68.8522C143.188 68.6424 142.856 68.5376 142.397 68.5376H141.939ZM152.417 72.3573H150.39L150.138 72.9226C150.058 73.1119 150.019 73.2693 150.019 73.3931C150.019 73.5577 150.084 73.6786 150.214 73.7574C150.291 73.8025 150.481 73.8375 150.782 73.8608V74.0094H148.858V73.8608C149.064 73.8287 149.236 73.7413 149.369 73.6C149.503 73.4572 149.669 73.163 149.864 72.7172L151.933 68.1005H152.015L154.102 72.8454C154.302 73.2999 154.465 73.5869 154.593 73.7049C154.691 73.7952 154.826 73.8462 155.004 73.8608V74.0094H152.204V73.8608H152.319C152.543 73.8608 152.702 73.8287 152.793 73.7646C152.855 73.7195 152.886 73.6524 152.886 73.5665C152.886 73.514 152.878 73.4601 152.861 73.4048C152.855 73.38 152.813 73.2708 152.733 73.0799L152.417 72.3573ZM152.28 72.0427L151.416 70.0686L150.532 72.0427H152.28ZM160.136 68.2141L162.99 71.8037V69.3155C162.99 68.9644 162.941 68.7284 162.84 68.6046C162.703 68.437 162.473 68.3569 162.151 68.3627V68.2141H164.065V68.3627C163.821 68.3947 163.656 68.4355 163.572 68.4851C163.489 68.5361 163.423 68.6177 163.375 68.7313C163.328 68.8449 163.305 69.0401 163.305 69.3155V74.1405H163.161L159.249 69.3096V73.0041C159.249 73.3392 159.325 73.5665 159.478 73.6845C159.631 73.8025 159.807 73.8608 160.004 73.8608H160.141V74.0094H158.078V73.8608C158.398 73.8579 158.62 73.7923 158.747 73.6626C158.872 73.533 158.935 73.3145 158.935 73.0041V68.9061L158.814 68.7561C158.691 68.5987 158.583 68.4953 158.489 68.4457C158.396 68.3962 158.26 68.3685 158.084 68.3627V68.2141H160.136ZM172.97 68.083V70.0934H172.803C172.678 69.566 172.446 69.1611 172.106 68.8799C171.765 68.5987 171.379 68.4588 170.947 68.4588C170.588 68.4588 170.257 68.5623 169.955 68.7706C169.655 68.9789 169.435 69.2514 169.295 69.5879C169.116 70.0191 169.027 70.4984 169.027 71.0258C169.027 71.5444 169.093 72.0179 169.223 72.4447C169.354 72.8701 169.558 73.1936 169.836 73.4106C170.114 73.6291 170.475 73.7384 170.918 73.7384C171.283 73.7384 171.615 73.6582 171.918 73.4995C172.219 73.3392 172.538 73.0653 172.873 72.6749V73.1732C172.55 73.5126 172.212 73.7588 171.861 73.9118C171.51 74.0647 171.1 74.1405 170.631 74.1405C170.014 74.1405 169.466 74.0166 168.988 73.769C168.509 73.5213 168.139 73.1644 167.879 72.7011C167.619 72.2364 167.489 71.7425 167.489 71.2181C167.489 70.6659 167.633 70.1415 167.922 69.6462C168.21 69.1509 168.599 68.7663 169.09 68.4924C169.579 68.2199 170.1 68.083 170.652 68.083C171.058 68.083 171.486 68.1719 171.938 68.3481C172.2 68.4515 172.366 68.5026 172.436 68.5026C172.528 68.5026 172.607 68.469 172.674 68.402C172.741 68.335 172.783 68.2287 172.803 68.083H172.97ZM178.701 71.221V73.0216C178.701 73.3203 178.717 73.5068 178.749 73.581C178.782 73.6553 178.845 73.7209 178.94 73.7763C179.034 73.8331 179.162 73.8608 179.323 73.8608H179.514V74.0094H176.498V73.8608H176.689C176.856 73.8608 176.992 73.8302 177.094 73.7705C177.168 73.7297 177.225 73.6612 177.264 73.5636C177.295 73.4951 177.311 73.3145 177.311 73.0216V69.2019C177.311 68.9032 177.295 68.7167 177.264 68.6424C177.232 68.5681 177.17 68.5026 177.075 68.4472C176.98 68.3904 176.852 68.3627 176.689 68.3627H176.498V68.2141H179.514V68.3627H179.323C179.157 68.3627 179.023 68.3933 178.921 68.453C178.848 68.4939 178.79 68.5623 178.747 68.6599C178.717 68.7284 178.701 68.909 178.701 69.2019V70.8452H180.755V69.2019C180.755 68.9032 180.739 68.7167 180.708 68.6424C180.676 68.5681 180.613 68.5026 180.516 68.4472C180.42 68.3904 180.292 68.3627 180.13 68.3627H179.942V68.2141H182.957V68.3627H182.77C182.601 68.3627 182.465 68.3933 182.366 68.453C182.292 68.4939 182.233 68.5623 182.191 68.6599C182.161 68.7284 182.145 68.909 182.145 69.2019V73.0216C182.145 73.3203 182.161 73.5068 182.191 73.581C182.223 73.6553 182.286 73.7209 182.384 73.7763C182.48 73.8331 182.608 73.8608 182.77 73.8608H182.957V74.0094H179.942V73.8608H180.13C180.299 73.8608 180.434 73.8302 180.533 73.7705C180.608 73.7297 180.666 73.6612 180.708 73.5636C180.739 73.4951 180.755 73.3145 180.755 73.0216V71.221H178.701Z" fill="black"/>
<path d="M183.239 77.123H6.3334V77.8153H183.239V77.123Z" fill="black"/>
</svg>
