<svg width="32" height="32" viewBox="0 0 32 32" fill="none" xmlns="http://www.w3.org/2000/svg">
<g clip-path="url(#clip0_541_247)">
<path d="M16 32C24.8366 32 32 24.8366 32 16C32 7.16344 24.8366 0 16 0C7.16344 0 0 7.16344 0 16C0 24.8366 7.16344 32 16 32Z" fill="url(#paint0_linear_541_247)"/>
<path fill-rule="evenodd" clip-rule="evenodd" d="M7.2426 15.8309C11.9069 13.7988 15.0172 12.459 16.5734 11.8117C21.0168 9.96359 21.9401 9.64255 22.5419 9.63195C22.6743 9.62962 22.9702 9.66242 23.1619 9.81797C23.3238 9.94931 23.3683 10.1267 23.3896 10.2513C23.4109 10.3758 23.4375 10.6595 23.4164 10.8811C23.1756 13.4111 22.1337 19.5507 21.6036 22.3843C21.3794 23.5833 20.9377 23.9854 20.5102 24.0247C19.581 24.1102 18.8755 23.4107 17.9756 22.8207C16.5674 21.8976 15.7718 21.323 14.4049 20.4222C12.8252 19.3812 13.8493 18.8091 14.7495 17.874C14.9851 17.6293 19.079 13.9056 19.1582 13.5678C19.1681 13.5256 19.1773 13.3681 19.0838 13.285C18.9902 13.2018 18.8521 13.2303 18.7525 13.2529C18.6113 13.2849 16.3616 14.7718 12.0036 17.7136C11.3651 18.1521 10.7867 18.3658 10.2685 18.3546C9.69718 18.3422 8.59826 18.0315 7.78133 17.766C6.77933 17.4403 5.98296 17.2681 6.05231 16.7149C6.08842 16.4268 6.48519 16.1321 7.2426 15.8309Z" fill="#00629C"/>
</g>
<defs>
<linearGradient id="paint0_linear_541_247" x1="16" y1="0" x2="16" y2="31.7627" gradientUnits="userSpaceOnUse">
<stop/>
<stop offset="1"/>
</linearGradient>
<clipPath id="clip0_541_247">
<rect width="32" height="32" fill="white"/>
</clipPath>
</defs>
</svg>
