<svg width="37" height="26" viewBox="0 0 37 26" fill="none" xmlns="http://www.w3.org/2000/svg">
<path d="M35.5566 4.21297C35.1381 2.6413 33.9093 1.40619 32.3459 0.985469C29.515 0.222168 18.158 0.222168 18.158 0.222168C18.158 0.222168 6.8011 0.222168 3.9701 0.985469C2.40663 1.40619 1.17796 2.6413 0.759441 4.21297C0.000122311 7.05882 0.00012207 12.9999 0.00012207 12.9999C0.00012207 12.9999 0.000122311 18.9411 0.759441 21.787C1.17796 23.3586 2.40663 24.5937 3.9701 25.0144C6.8011 25.7777 18.158 25.7777 18.158 25.7777C18.158 25.7777 29.515 25.7777 32.3459 25.0144C33.9093 24.5937 35.1381 23.3586 35.5566 21.787C36.3159 18.9411 36.3159 12.9999 36.3159 12.9999C36.3159 12.9999 36.3129 7.05882 35.5566 4.21297Z" fill="#060606"/>
<path d="M14.5229 18.3803L23.9577 12.9336L14.5229 7.48682V18.3803Z" fill="#00629C"/>
</svg>
