<svg width="49" height="48" viewBox="0 0 49 48" fill="none" xmlns="http://www.w3.org/2000/svg">
<path d="M24.8616 0.44463L24.8606 0.445606L25.3137 0.457325L25.4133 0.459278L25.4163 0.463184C31.6071 0.701185 37.1902 3.33563 41.2649 7.46611L41.6565 7.87236L41.6672 7.88408L42.0334 8.2835C45.778 12.4561 48.0627 17.9648 48.0627 24.0003C48.0627 29.9747 45.8228 35.4331 42.1458 39.5901C42.1419 39.597 42.1354 39.6029 42.1301 39.6106L42.1321 39.6126C42.128 39.6188 42.1207 39.6228 42.1165 39.6282C42.111 39.635 42.1076 39.6439 42.1008 39.6507L42.0989 39.6487C42.0902 39.6579 42.0839 39.6678 42.0764 39.6741C42.0725 39.6775 42.0683 39.6801 42.0647 39.6829C37.9373 44.3015 32.0199 47.2832 25.4133 47.5374L25.4114 47.5403L25.3118 47.5433L24.8606 47.554L24.8616 47.555C24.745 47.559 24.6233 47.5628 24.5002 47.5628C24.3778 47.5628 24.2555 47.5591 24.1399 47.556L23.6868 47.5442L23.5872 47.5413L23.5842 47.5384C16.9837 47.2845 11.0727 44.3062 6.94556 39.6956L6.9436 39.6946C6.93483 39.6875 6.90559 39.6633 6.87817 39.6272V39.6282L6.87622 39.6263C6.87498 39.6246 6.87354 39.6231 6.87231 39.6214L6.87329 39.6194C6.86919 39.6137 6.86689 39.6074 6.86353 39.6019C3.18055 35.4435 0.936841 29.9801 0.936768 24.0003C0.936768 17.7704 3.37119 12.1015 7.33325 7.88506C7.33654 7.88139 7.33901 7.87737 7.34204 7.87432L7.34497 7.87236C11.4496 3.50918 17.1931 0.709159 23.5842 0.463184L23.5881 0.459278L23.6877 0.457325L24.1389 0.445606V0.44463C24.2555 0.440639 24.3772 0.436817 24.5002 0.436817C24.6233 0.436824 24.745 0.440637 24.8616 0.44463ZM14.8909 36.4261C12.9658 37.1353 11.1183 38.0596 9.37231 39.1927C12.457 42.2639 16.4658 44.4023 20.9407 45.1526C18.3945 42.6008 16.3577 39.6456 14.8909 36.4261ZM34.1086 36.4261C32.6417 39.6465 30.6043 42.6013 28.0579 45.1526C32.5329 44.4026 36.5413 42.2638 39.6262 39.1927C37.8797 38.0598 36.0334 37.1352 34.1086 36.4261ZM23.4465 34.7415C21.2124 34.8248 19.022 35.1695 16.9055 35.7688C18.4542 39.0907 20.6631 42.1013 23.4465 44.6272V34.7415ZM25.554 44.6272C28.3369 42.1016 30.5444 39.0908 32.093 35.7688C29.9769 35.1704 27.7874 34.8242 25.554 34.7415V44.6272ZM6.83423 39.5472C6.83474 39.5485 6.83542 39.5502 6.83618 39.5521C6.83965 39.5606 6.84601 39.5751 6.85669 39.5911L6.85767 39.5901C6.84612 39.5692 6.83652 39.5539 6.83423 39.5472ZM42.1633 39.5521C42.1625 39.5541 42.1601 39.5568 42.1584 39.5608C42.1598 39.558 42.1625 39.5559 42.1633 39.554C42.1646 39.5509 42.1652 39.5484 42.1653 39.5481C42.1649 39.5492 42.1637 39.5511 42.1633 39.5521ZM3.07642 25.054C3.30803 29.8085 5.09201 34.1605 7.93481 37.6136C9.87469 36.3237 11.935 35.2773 14.0852 34.4788C12.9732 31.4924 12.3361 28.3186 12.2229 25.054H3.07642ZM36.7776 25.054C36.6644 28.3186 36.027 31.4923 34.9143 34.4788C37.0645 35.2773 39.1248 36.3237 41.0647 37.6136C43.9083 34.1605 45.6915 29.8086 45.9231 25.054H36.7776ZM14.3313 25.054C14.4441 28.0873 15.0419 31.0355 16.0823 33.8069C18.4618 33.1116 20.9298 32.7179 23.4465 32.6312V25.054H14.3313ZM25.554 32.6312C28.0702 32.7179 30.5378 33.1111 32.9163 33.8069C33.9573 31.0349 34.5554 28.0872 34.6682 25.054H25.554V32.6312ZM40.6282 9.87334C38.7386 11.0827 36.7365 12.0633 34.6526 12.8138C35.9336 16.0031 36.6557 19.4248 36.7776 22.9466H45.9231C45.6799 17.9524 43.7247 13.4033 40.6282 9.87334ZM32.637 13.4681C30.343 14.1141 27.9698 14.4811 25.554 14.5647V22.9466H34.6692C34.5461 19.6477 33.8521 16.4482 32.637 13.4681ZM16.3625 13.4681C15.1475 16.4481 14.4543 19.6478 14.3313 22.9466H23.4465V14.5647C21.0301 14.4811 18.6562 14.1136 16.3625 13.4681ZM8.37134 9.87334C5.27488 13.4032 3.3206 17.9525 3.07739 22.9466H12.2229C12.3448 19.4252 13.0661 16.0038 14.3469 12.8147C12.2629 12.0642 10.261 11.0828 8.37134 9.87334ZM23.4465 3.37139C20.8627 5.71585 18.7724 8.47847 17.2473 11.5208C19.2593 12.0619 21.334 12.3754 23.4465 12.4544V3.37139ZM25.554 12.4544C27.6658 12.3754 29.7398 12.0617 31.7512 11.5208C30.2263 8.47882 28.1375 5.71564 25.554 3.37139V12.4544ZM20.9417 2.84697C16.7044 3.55722 12.8846 5.51227 9.87231 8.32549C11.564 9.37239 13.348 10.2275 15.2024 10.8841C16.641 7.92895 18.5755 5.21586 20.9417 2.84697ZM28.0579 2.84697C30.4236 5.21593 32.3584 7.92879 33.7971 10.8841C35.6513 10.2276 37.4349 9.37225 39.1272 8.32549C36.114 5.5123 32.2952 3.55701 28.0579 2.84697Z" fill="white" stroke="white" stroke-width="0.5"/>
</svg>
